<svg version="1.1" xmlns="http://www.w3.org/2000/svg" width="16" height="16" viewBox="0 0 16 16" fill="currentColor" class="tm-icon"><title></title><path d="M13.5 11.5C13.5 12.05 13.05 12.5 12.5 12.5C11.95 12.5 11.5 12.05 11.5 11.5C11.5 10.95 11.95 10.5 12.5 10.5C13.05 10.5 13.5 10.95 13.5 11.5ZM16 11.5C16 13.43 14.43 15 12.5 15C10.74 15 9.3 13.69 9.05 12H7V11H9.05C9.18 10.08 9.67 9.28 10.37 8.74L8.88 6.09C8.6 6.19 8.31 6.25 8 6.25C6.48 6.25 5.25 5.02 5.25 3.5C5.25 1.98 6.48 0.75 8 0.75C9.52 0.75 10.75 1.98 10.75 3.5C10.75 4.35 10.36 5.09 9.75 5.6L11.24 8.24C11.63 8.09 12.06 8 12.5 8C14.43 8 16 9.57 16 11.5ZM8 5.25C8.97 5.25 9.75 4.47 9.75 3.5C9.75 2.53 8.97 1.75 8 1.75C7.03 1.75 6.25 2.53 6.25 3.5C6.25 4.47 7.03 5.25 8 5.25ZM15 11.5C15 10.12 13.88 9 12.5 9C11.12 9 10 10.12 10 11.5C10 12.88 11.12 14 12.5 14C13.88 14 15 12.88 15 11.5ZM5.98 7.53L4.66 9.53C5.18 10.03 5.5 10.73 5.5 11.5C5.5 13.02 4.27 14.25 2.75 14.25C1.23 14.25 0 13.02 0 11.5C0 9.98 1.23 8.75 2.75 8.75C3.13 8.75 3.49 8.83 3.82 8.97L5.14 6.97L5.98 7.53ZM4.5 11.5C4.5 10.53 3.72 9.75 2.75 9.75C1.78 9.75 1 10.53 1 11.5C1 12.47 1.78 13.25 2.75 13.25C3.72 13.25 4.5 12.47 4.5 11.5Z"></path></svg>