<svg version="1.1" xmlns="http://www.w3.org/2000/svg" width="16" height="16" viewBox="0 0 16 16" fill="currentColor" class="tm-icon"><title></title><path d="M15.69 14.98L14.98 15.69L11.87 12.58C10.79 13.5 9.43 14 8 14C7.31 14 6.63 13.88 6 13.65V12.57C6.64 12.85 7.32 13 8 13C9.28 13 10.56 12.51 11.54 11.54C13.49 9.59 13.49 6.42 11.54 4.47C10.56 3.49 9.28 3 8 3C6.72 3 5.44 3.49 4.46 4.46C3.48 5.43 3 6.72 3 8H2C2 6.4 2.62 4.89 3.76 3.76C4.89 2.62 6.4 2 8 2C9.6 2 11.11 2.62 12.24 3.76C13.37 4.9 14 6.4 14 8C14 9.43 13.5 10.79 12.58 11.87L15.69 14.98ZM0 10H5V9H0V10ZM0 14H5V13H0V14ZM0 12H5V11H0V12ZM9.5 8C9.5 7.17 8.83 6.5 8 6.5C7.17 6.5 6.5 7.17 6.5 8C6.5 8.83 7.17 9.5 8 9.5C8.83 9.5 9.5 8.83 9.5 8Z"></path></svg>