<svg version="1.1" xmlns="http://www.w3.org/2000/svg" width="16" height="16" viewBox="0 0 16 16" fill="currentColor" class="tm-icon"><title></title><path d="M13 7.3L13.4 8.2L9.7 9.8V9.9C9.7 10.9 8.9 11.7 7.9 11.7C7.4 11.7 7 11.5 6.6 11.2L5.3 11.8L4.9 10.9L6.3 10.3C6.3 10.2 6.3 10.1 6.3 10C6.3 9 7 8.2 8 8.2C8.6 8.2 9.1 8.5 9.4 8.9L13 7.3ZM5 15H11V14H5V15ZM8 2C3.6 2 0 5.6 0 10C0 10.6 0.1 11.2 0.2 11.7C0.3 12.4 0.6 13 0.9 13.6L1.8 13.1C1.5 12.6 1.3 12 1.2 11.4C1.1 11.2 1 10.8 1 10.5H2V9.5H1C1.1 7.9 1.7 6.5 2.7 5.4L3.4 6.1L4.1 5.4L3.4 4.7C4.5 3.8 6 3.1 7.5 3V4.3H8.5V3C10.1 3.1 11.5 3.7 12.6 4.7L11.9 5.4L12.6 6.1L13.3 5.4C14.3 6.5 14.9 7.9 15 9.5H14V10.5H15C14.9 11.5 14.7 12.4 14.3 13.2L15.2 13.7C15.7 12.6 16 11.3 16 10C16 5.6 12.4 2 8 2Z"></path></svg>