<svg version="1.1" xmlns="http://www.w3.org/2000/svg" width="16" height="16" viewBox="0 0 16 16" fill="currentColor" class="tm-icon"><title></title><path d="M12,8l2,3h-4V7.3l1.7-0.8C12,6.8,12.5,7,13,7c1.1,0,2-0.9,2-2s-0.9-2-2-2s-2,0.9-2,2c0,0.2,0,0.4,0.1,0.6L9,6.7V11H8V4.9c1.1-0.2,2-1.2,2-2.4C10,1.1,8.9,0,7.5,0S5,1.1,5,2.5c0,1.2,0.9,2.2,2,2.4V11H6V6.7L3.9,5.6C4,5.4,4,5.2,4,5c0-1.1-0.9-2-2-2S0,3.9,0,5s0.9,2,2,2c0.5,0,1-0.2,1.3-0.5L5,7.3V11H1l2-3H2l-2,3v5h15v-5l-2-3H12z M13,4c0.6,0,1,0.4,1,1s-0.4,1-1,1s-1-0.4-1-1S12.4,4,13,4z M6,2.5C6,1.7,6.7,1,7.5,1S9,1.7,9,2.5S8.3,4,7.5,4S6,3.3,6,2.5z M2,6C1.4,6,1,5.6,1,5s0.4-1,1-1s1,0.4,1,1S2.6,6,2,6z M14,15H1v-3h13V15z"></path></svg>