<svg version="1.1" xmlns="http://www.w3.org/2000/svg" width="16" height="16" viewBox="0 0 16 16" fill="currentColor" class="tm-icon"><title></title><path d="M5.5 9.8H6.5V11.3H5.5V9.8ZM8.2 10.9L9.1 10.4L8.4 9.1L7.5 9.6L8.2 10.9ZM2.9 10.4L3.8 10.9L4.6 9.6L3.6 9.1L2.9 10.4ZM3 6C3 4.9 3.6 3.9 4.5 3.4V1H7.5V3.4C8.4 3.9 9 4.9 9 6C9 7.7 7.7 9 6 9C4.3 9 3 7.7 3 6ZM4 6C4 7.1 4.9 8 6 8C7.1 8 8 7.1 8 6C8 5.1 7.4 4.3 6.5 4.1V3V2H5.5V3V4.1C4.6 4.3 4 5.1 4 6ZM16 1V11.2L12.1 15H0V1H3.5V2H1V14H11V2H8.5V1H16ZM15 2H12V13.7L15 10.8V2Z"></path></svg>