<svg version="1.1" xmlns="http://www.w3.org/2000/svg" width="16" height="16" viewBox="0 0 16 16" fill="currentColor" class="tm-icon"><title></title><path d="M8.00005 6.00005C6.90005 6.00005 6.00005 6.90005 6.00005 8.00005C6.00005 9.10005 6.90005 10 8.00005 10C9.10005 10 10 9.10005 10 8.00005C10 6.90005 9.10005 6.00005 8.00005 6.00005ZM8.00005 9.00005C7.40005 9.00005 7.00005 8.60005 7.00005 8.00005C7.00005 7.40005 7.40005 7.00005 8.00005 7.00005C8.60005 7.00005 9.00005 7.40005 9.00005 8.00005C9.00005 8.60005 8.60005 9.00005 8.00005 9.00005ZM12.9 7.50005C12.7 5.10005 10.8 3.30005 8.50005 3.10005V1.00005H7.50005V3.10005C5.10005 3.30005 3.30005 5.10005 3.10005 7.50005H1.00005V8.50005H3.10005C3.30005 10.9 5.20005 12.7 7.50005 12.9V15H8.50005V12.9C10.9 12.7 12.7 10.8 12.9 8.50005H15V7.50005H12.9ZM8.50005 11.9V11H7.50005V11.9C5.70005 11.7 4.30005 10.3 4.10005 8.50005H5.00005V7.50005H4.10005C4.30005 5.70005 5.70005 4.30005 7.50005 4.10005V5.00005H8.50005V4.10005C10.3 4.30005 11.7 5.70005 11.9 7.50005H11V8.50005H11.9C11.7 10.3 10.3 11.7 8.50005 11.9ZM10 1.30005V0.300049C12.8 1.00005 15 3.20005 15.7 6.00005H14.7C14 3.70005 12.3 2.00005 10 1.30005ZM1.30005 6.00005H0.300049C1.00005 3.20005 3.20005 1.00005 6.00005 0.300049V1.30005C3.70005 2.00005 2.00005 3.70005 1.30005 6.00005ZM6.00005 14.7V15.7C3.20005 15 1.00005 12.8 0.300049 10H1.30005C2.00005 12.3 3.70005 14 6.00005 14.7ZM14.7 10H15.7C15 12.8 12.8 15 10 15.7V14.7C12.3 14 14 12.3 14.7 10Z"></path></svg>