<svg version="1.1" xmlns="http://www.w3.org/2000/svg" width="16" height="16" viewBox="0 0 16 16" fill="currentColor" class="tm-icon"><title></title><path d="M2.5 3C2.8 3 3 3.2 3 3.5C3 3.8 2.8 4 2.5 4C2.2 4 2 3.8 2 3.5C2 3.2 2.2 3 2.5 3ZM2.5 7.5C2.8 7.5 3 7.7 3 8C3 8.3 2.8 8.5 2.5 8.5C2.2 8.5 2 8.3 2 8C2 7.7 2.2 7.5 2.5 7.5ZM2.5 12C2.8 12 3 12.2 3 12.5C3 12.8 2.8 13 2.5 13C2.2 13 2 12.8 2 12.5C2 12.2 2.2 12 2.5 12ZM2.5 2C1.7 2 1 2.7 1 3.5C1 4.3 1.7 5 2.5 5C3.3 5 4 4.3 4 3.5C4 2.7 3.3 2 2.5 2ZM15 3H6V4H15V3ZM2.5 6.5C1.7 6.5 1 7.2 1 8C1 8.8 1.7 9.5 2.5 9.5C3.3 9.5 4 8.8 4 8C4 7.2 3.3 6.5 2.5 6.5ZM15 7.5H6V8.5H15V7.5ZM2.5 11C1.7 11 1 11.7 1 12.5C1 13.3 1.7 14 2.5 14C3.3 14 4 13.3 4 12.5C4 11.7 3.3 11 2.5 11ZM15 12H6V13H15V12Z"></path></svg>