<svg version="1.1" xmlns="http://www.w3.org/2000/svg" width="16" height="16" viewBox="0 0 16 16" fill="currentColor" class="tm-icon"><title></title><path d="M8 0C3.6 0 0 3.6 0 8C0 12.4 3.6 16 8 16C12.4 16 16 12.4 16 8C16 3.6 12.4 0 8 0ZM8 15C4.1 15 1 11.9 1 8C1 4.1 4.1 1 8 1C11.9 1 15 4.1 15 8C15 11.9 11.9 15 8 15ZM8.8 11.9C8.8 12.4 8.4 12.7 8 12.7C7.6 12.7 7.2 12.3 7.2 11.9C7.2 11.4 7.6 11.1 8 11.1C8.4 11.1 8.8 11.5 8.8 11.9ZM10.5 6.1C10.5 6.8 10.1 7.5 9.5 8L8.8 8.5C8.6 8.6 8.5 8.8 8.5 9.1V10H7.5V9.1C7.5 8.6 7.8 8 8.2 7.7L9 7.1C9.4 6.8 9.6 6.5 9.6 6C9.6 5.3 9 4.7 8.2 4.7H7.9C7.1 4.7 6.5 5.3 6.5 6V6.4H5.5V6.1C5.5 4.8 6.6 3.8 7.9 3.8H8.1C9.4 3.8 10.5 4.8 10.5 6.1Z"></path></svg>