<svg version="1.1" xmlns="http://www.w3.org/2000/svg" width="16" height="16" viewBox="0 0 16 16" fill="currentColor" class="tm-icon"><title></title><path d="M9.2 16H6.8L6 14L5.1 13.6L3.1 14.5L1.4 12.8L2.3 10.8L2.1 10L0 9.2V6.8L2.1 6L2.5 5.1L1.6 3.1L3.3 1.4L5.3 2.3L6 2L6.7 0H9.2L10 2L10.9 2.4L12.9 1.5L14.6 3.2L13.7 5.2L13.9 6L16 6.8V9.3L13.9 10L13.5 10.9L14.4 12.9L12.7 14.6L10.7 13.7L10 14L9.2 16ZM7.5 15H8.5L9.1 13.2L10.8 12.5L12.5 13.3L13.2 12.6L12.4 10.9L13.1 9.2L15 8.5V7.5L13.2 6.9L12.5 5.2L13.3 3.5L12.6 2.8L10.9 3.6L9.2 2.8L8.5 1H7.5L6.8 2.8L5.1 3.5L3.4 2.7L2.7 3.4L3.5 5.1L2.8 6.8L1 7.5V8.5L2.8 9.1L3.5 10.8L2.7 12.5L3.4 13.2L5.1 12.4L6.8 13.1L7.5 15ZM8 10.5C6.6 10.5 5.5 9.4 5.5 8C5.5 6.6 6.6 5.5 8 5.5C9.4 5.5 10.5 6.6 10.5 8C10.5 9.4 9.4 10.5 8 10.5ZM8 6.5C7.2 6.5 6.5 7.2 6.5 8C6.5 8.8 7.2 9.5 8 9.5C8.8 9.5 9.5 8.8 9.5 8C9.5 7.2 8.8 6.5 8 6.5Z"></path></svg>