<svg version="1.1" xmlns="http://www.w3.org/2000/svg" width="16" height="16" viewBox="0 0 16 16" fill="currentColor" class="tm-icon"><title></title><path d="M5 12H11V13H5V12ZM13 2.5V13.5C13 14.3 12.3 15 11.5 15H4.5C3.7 15 3 14.3 3 13.5V12H4V13.5C4 13.8 4.2 14 4.5 14H11.5C11.8 14 12 13.8 12 13.5V2.5C12 2.2 11.8 2 11.5 2H11V4H5V2H4.5C4.2 2 4 2.2 4 2.5V9H3V2.5C3 1.7 3.7 1 4.5 1H5H11H11.5C12.3 1 13 1.7 13 2.5ZM10 2H6V3H10V2ZM6.7 7L4.7 10H2.9C2.7 9.4 2.2 9 1.5 9C0.7 9 0 9.7 0 10.5C0 11.3 0.7 12 1.5 12C2.2 12 2.7 11.6 2.9 11H5.3L7.3 8H12V7H6.7ZM1.5 11C1.2 11 1 10.8 1 10.5C1 10.2 1.2 10 1.5 10C1.8 10 2 10.2 2 10.5C2 10.8 1.8 11 1.5 11Z"></path></svg>