<svg version="1.0" xmlns="http://www.w3.org/2000/svg"
 width="25.600000pt" height="25.600000pt" viewBox="0 0 25.600000 25.600000"
 preserveAspectRatio="xMidYMid meet">
<metadata>
Created by potrace 1.13, written by Peter Selinger 2001-2015
</metadata>
<g transform="translate(0.000000,25.600000) scale(0.080000,-0.080000)"
fill="#ed1c24" stroke="none">
<path d="M10 160 l0 -150 150 0 150 0 0 150 0 150 -150 0 -150 0 0 -150z m282
65 c-7 -92 -118 -185 -220 -185 l-54 0 7 43 c4 23 11 50 16 59 6 11 5 18 -3
20 -6 2 8 14 32 27 41 21 42 22 37 2 -3 -11 0 -22 7 -25 6 -2 3 -5 -6 -5 -22
-1 -36 -60 -17 -72 48 -32 182 84 164 141 -8 26 -46 35 -87 21 -18 -6 -28 -7
-23 -2 17 16 78 27 115 21 34 -5 35 -7 32 -45z"/>
</g>
</svg>
